<svg width="24" height="24" viewBox="0 0 24 24" fill="none" xmlns="http://www.w3.org/2000/svg">
<path fill-rule="evenodd" clip-rule="evenodd" d="M6.32644 4.57031H17.7809L21.0536 10.2703L12.0537 20.8561L3.05371 10.2703L6.32644 4.57031Z" stroke="#5C5F62" stroke-width="1.2" stroke-linecap="round" stroke-linejoin="round"/>
<path d="M6.32568 4.57031L12.053 20.8561L17.7802 4.57031" stroke="#5C5F62" stroke-width="1.2" stroke-linecap="round" stroke-linejoin="round"/>
<path d="M3.05371 10.2695H21.0536" stroke="#5C5F62" stroke-width="1.2" stroke-linecap="round" stroke-linejoin="round"/>
<path d="M8.37207 10.2703L12.0539 4.57031L15.7357 10.2703" stroke="#5C5F62" stroke-width="1.2" stroke-linecap="round" stroke-linejoin="round"/>
<path d="M20.654 0.603721C20.7195 0.409109 20.9948 0.409109 21.0602 0.603721L21.5424 2.03707C21.5638 2.1006 21.6137 2.15047 21.6772 2.17184L23.1105 2.65404C23.3051 2.71951 23.3051 2.99477 23.1105 3.06024L21.6772 3.54244C21.6137 3.56382 21.5638 3.61369 21.5424 3.67722L21.0602 5.11056C20.9948 5.30518 20.7195 5.30518 20.654 5.11056L20.1718 3.67722C20.1505 3.61369 20.1006 3.56382 20.0371 3.54244L18.6037 3.06024C18.4091 2.99477 18.4091 2.71951 18.6037 2.65404L20.0371 2.17184C20.1006 2.15047 20.1505 2.1006 20.1718 2.03707L20.654 0.603721Z" fill="#5C5F62"/>
</svg>
