<svg width="12" height="12" viewBox="0 0 12 12" fill="none" xmlns="http://www.w3.org/2000/svg">
<path fill-rule="evenodd" clip-rule="evenodd" d="M0 0H2.4V2.4H0V0ZM2.4 2.4H4.79996V0H7.19997V2.4L4.8 2.4V4.8L7.19997 4.8V7.2H4.79996V4.8H2.40004V7.2H3.62396e-05V4.8L2.4 4.8L2.4 2.4ZM9.6 0H12V2.4L9.60004 2.4V4.8L12 4.8V7.2H9.6V4.8L7.20004 4.8V2.4L9.6 2.4V0ZM3.62396e-05 9.6L2.4 9.6V7.2H4.8V9.6L7.19997 9.6V12H4.79996V9.6H2.40004V12H3.62396e-05V9.6ZM12 9.6L9.60004 9.6V7.2H7.20004V9.6L9.6 9.6V12H12V9.6Z" fill="#000"/>
</svg>
