<svg width="18" height="14" viewBox="0 0 18 14" fill="none" xmlns="http://www.w3.org/2000/svg">
<path fill-rule="evenodd" clip-rule="evenodd" d="M0 0.81C0 0.362649 0.362649 0 0.81 0H17.19C17.6374 0 18 0.362649 18 0.81C18 1.25735 17.6374 1.62 17.19 1.62H0.809999C0.362649 1.62 0 1.25735 0 0.81ZM0 6.74976C0 6.30241 0.362649 5.93976 0.81 5.93976H17.19C17.6374 5.93976 18 6.30241 18 6.74976C18 7.19711 17.6374 7.55976 17.19 7.55976H0.809999C0.362649 7.55976 0 7.19711 0 6.74976ZM0.81 11.8801C0.362649 11.8801 0 12.2427 0 12.6901C0 13.1374 0.362649 13.5001 0.809999 13.5001H17.19C17.6374 13.5001 18 13.1374 18 12.6901C18 12.2427 17.6374 11.8801 17.19 11.8801H0.81Z" fill="#1F1F1F"/>
</svg>
