<svg width="12" height="12" viewBox="0 0 14 14" fill="none" xmlns="http://www.w3.org/2000/svg">
<path fill-rule="evenodd" clip-rule="evenodd" d="M0.0127259 5.60089C0.673402 2.40535 3.54991 0 7.00008 0C10.4503 0 13.3268 2.40535 13.9875 5.60089L12.717 5.85408C12.1766 3.24004 9.8216 1.27277 7.00008 1.27277C4.59964 1.27277 2.53688 2.6967 1.64188 4.73139L2.38752 4.48737L2.79746 5.69483L0.852923 6.33121C0.633408 6.40306 0.391534 6.35456 0.218286 6.20396C0.045039 6.05337 -0.0333047 5.82353 0.0127259 5.60089ZM7.12943 3.81832C7.38695 3.81832 7.62004 3.968 7.72326 4.19963L9.99189 9.29073L8.80422 9.80088L8.26519 8.59122H5.99367L5.45464 9.80088L4.26697 9.29073L6.53559 4.19963C6.63881 3.968 6.87191 3.81832 7.12943 3.81832ZM7.69803 7.31845L7.12943 6.04243L6.56082 7.31845H7.69803ZM13.987 8.39964C14.0341 8.17194 13.951 7.93714 13.7703 7.78711C13.5896 7.63708 13.34 7.59567 13.1191 7.67908L11.4339 8.31546L11.8993 9.5034L12.3249 9.34266C11.4129 11.3381 9.37109 12.7278 6.99964 12.7278C4.17815 12.7278 1.82319 10.7605 1.28274 8.14645L0.0122899 8.39964C0.672966 11.5952 3.54948 14.0005 6.99964 14.0005C10.4498 14.0005 13.3263 11.5952 13.987 8.39964Z" fill="#000"/>
</svg>
