<svg width="30" height="30" viewBox="0 0 30 30" fill="none" xmlns="http://www.w3.org/2000/svg">
<path d="M6.74548 25H23.146M14.9457 25L6 16.0543L11.2183 9.34496M13.4548 5.61757L16.4367 8.59949L13.4548 11.5814L10.4729 8.59949C9.64944 7.77605 9.64944 6.44101 10.4729 5.61757C11.2963 4.79414 12.6313 4.79414 13.4548 5.61757ZM15.149 9.88713L14.7424 10.2938C12.3844 12.6518 12.3844 16.4749 14.7424 18.8329C14.8547 18.9451 15.0368 18.9451 15.149 18.8329L23.6882 10.2938C23.8004 10.1815 23.8004 9.99942 23.6882 9.88713C21.3301 7.52912 17.5071 7.52912 15.149 9.88713Z" stroke="#7A2EF6" stroke-width="1.5" stroke-linecap="round" stroke-linejoin="round"/>
<path d="M16.4367 8.59949L13.4548 5.61757C12.6314 4.79414 11.2964 4.79414 10.4729 5.61757C9.64949 6.44101 9.64949 7.77605 10.4729 8.59949L13.4548 11.5814L16.4367 8.59949Z" fill="#7A2EF6"/>
<path d="M14.7425 10.2938L15.1491 9.88713C17.5071 7.52912 21.3302 7.52912 23.6882 9.88713C23.8005 9.99942 23.8005 10.1815 23.6882 10.2938L15.1491 18.8329C15.0368 18.9452 14.8548 18.9452 14.7425 18.8329C12.3845 16.4749 12.3845 12.6518 14.7425 10.2938Z" fill="#7A2EF6"/>
</svg>
