<svg width="30" height="30" viewBox="0 0 30 30" fill="none" xmlns="http://www.w3.org/2000/svg">
<mask id="path-1-inside-1_1404_13717" fill="white">
<path d="M3 12C3 7.58172 6.58172 4 11 4H19.2C23.6183 4 27.2 7.58172 27.2 12V25C27.2 25.5523 26.7523 26 26.2 26H11C6.58172 26 3 22.4183 3 18V12Z"/>
</mask>
<path d="M3 12C3 7.58172 6.58172 4 11 4H19.2C23.6183 4 27.2 7.58172 27.2 12V25C27.2 25.5523 26.7523 26 26.2 26H11C6.58172 26 3 22.4183 3 18V12Z" stroke="#1F1F1F" stroke-width="3" mask="url(#path-1-inside-1_1404_13717)"/>
<rect x="8.77502" y="13.9" width="2.75" height="2.75" rx="1.375" fill="#1F1F1F"/>
<rect x="13.725" y="13.9" width="2.75" height="2.75" rx="1.375" fill="#1F1F1F"/>
<rect x="18.675" y="13.9" width="2.75" height="2.75" rx="1.375" fill="#1F1F1F"/>
</svg>
