<svg width="41" height="40" viewBox="0 0 41 40" fill="none" xmlns="http://www.w3.org/2000/svg">
<path d="M9.09937 31.2582H31.8756C34.5876 31.2582 36.019 29.8519 36.019 27.165V13.9814C36.019 11.2944 34.5876 9.88818 31.8756 9.88818H28.4479C27.4685 9.88818 27.1546 9.72496 26.5394 9.08461L25.5475 8.01737C24.8946 7.3268 24.2291 6.98779 22.9484 6.98779H17.9638C16.6831 6.98779 16.0302 7.3268 15.3647 8.01737L14.3728 9.08461C13.7701 9.7124 13.4437 9.88818 12.4643 9.88818H9.09937C6.38731 9.88818 4.96851 11.2944 4.96851 13.9814V27.165C4.96851 29.8519 6.38731 31.2582 9.09937 31.2582ZM9.26259 28.7596C8.12001 28.7596 7.46711 28.1569 7.46711 26.939V14.2074C7.46711 13.002 8.12001 12.3993 9.26259 12.3993H13.1926C14.3226 12.3993 14.9001 12.1985 15.5405 11.5079L16.4947 10.4532C17.1979 9.68729 17.5745 9.4864 18.6794 9.4864H22.2327C23.3376 9.4864 23.7143 9.68729 24.4049 10.4406L25.3717 11.5079C26.012 12.1985 26.5896 12.3993 27.7196 12.3993H31.7124C32.8675 12.3993 33.5078 13.002 33.5078 14.2074V26.939C33.5078 28.1569 32.8675 28.7596 31.7124 28.7596H9.26259ZM20.4875 27.1022C24.2542 27.1022 27.2676 24.0888 27.2676 20.3095C27.2676 16.5302 24.2542 13.5168 20.4875 13.5168C16.7333 13.5168 13.7199 16.5302 13.7199 20.3095C13.7199 24.0888 16.7333 27.1022 20.4875 27.1022ZM27.6945 15.8145C27.6945 16.7311 28.4353 17.4468 29.3393 17.4342C30.2182 17.4342 30.959 16.7185 30.959 15.8145C30.959 14.9356 30.2057 14.1823 29.3393 14.1823C28.4353 14.1823 27.6945 14.9356 27.6945 15.8145ZM20.4875 24.817C18.014 24.817 15.9925 22.8081 15.9925 20.3095C15.9925 17.7983 18.0014 15.802 20.4875 15.802C22.9861 15.802 24.995 17.7983 24.995 20.3095C24.995 22.8081 22.9861 24.817 20.4875 24.817Z" fill="white"/>
</svg>
