<svg width="24" height="24" viewBox="0 0 24 24" fill="none" xmlns="http://www.w3.org/2000/svg">
<path d="M11.9925 11.7339C12.4671 11.7339 12.776 11.4024 12.776 10.9052V4.29081C12.776 3.7936 12.4671 3.45459 11.9925 3.45459C11.5254 3.45459 11.209 3.7936 11.209 4.29081V10.9052C11.209 11.4024 11.5254 11.7339 11.9925 11.7339ZM11.9925 19.4934C16.264 19.4934 19.7897 15.9677 19.7897 11.7038C19.7897 9.42864 18.7802 7.4398 17.3714 6.11391C16.5879 5.34549 15.4805 6.37758 16.2866 7.1912C17.4844 8.32122 18.2227 9.91832 18.2302 11.7038C18.2378 15.1616 15.4504 17.9415 11.9925 17.9415C8.53463 17.9415 5.76985 15.1616 5.76985 11.7038C5.76985 9.91078 6.50813 8.31369 7.70595 7.18366C8.51203 6.36251 7.40461 5.33796 6.62113 6.10638C5.20483 7.43227 4.20288 9.42864 4.20288 11.7038C4.20288 15.9677 7.72855 19.4934 11.9925 19.4934Z" fill="#EC3227"/>
</svg>
