<svg width="32" height="32" viewBox="0 0 32 32" fill="none" xmlns="http://www.w3.org/2000/svg">
<g filter="url(#filter0_b_2233_1722)">
<rect width="32" height="32" rx="8" fill="#1D9BF0"/>
<path d="M25.3049 8.5747C25.2883 8.32784 25.1239 8.11479 24.8876 8.03387C24.6512 7.95295 24.3888 8.01991 24.2215 8.20383C23.7914 8.67664 23.2478 8.99703 22.6961 9.14311C21.9289 8.43465 20.898 8.00002 19.7651 8.00002C17.3337 8.00002 15.3643 9.95218 15.3643 12.3583V12.8996C11.6418 12.6151 9.65124 9.81844 9.11411 8.39962C9.02729 8.17029 8.81124 8.01369 8.56398 8.00087C8.31672 7.98805 8.0853 8.12144 7.9747 8.34054C6.67212 10.9211 6.47143 13.4239 7.41814 15.5552C8.24745 17.4222 9.91528 18.9094 12.2791 19.8947C11.2048 20.6477 9.39665 21.5385 7.28889 21.5385C7.01478 21.5385 6.77296 21.7159 6.69344 21.9753C6.61391 22.2347 6.71541 22.5151 6.94338 22.6656C8.96446 24.0003 11.0827 24.0001 13.0529 24L13.1132 24C19.1619 24 24.0637 19.1431 24.0637 13.1539V12.5652C24.516 12.1106 24.8681 11.6452 25.0839 11.0436C25.3247 10.3723 25.3732 9.59384 25.3049 8.5747Z" fill="white"/>
</g>
<defs>
<filter id="filter0_b_2233_1722" x="-44" y="-44" width="120" height="120" filterUnits="userSpaceOnUse" color-interpolation-filters="sRGB">
<feFlood flood-opacity="0" result="BackgroundImageFix"/>
<feGaussianBlur in="BackgroundImageFix" stdDeviation="22"/>
<feComposite in2="SourceAlpha" operator="in" result="effect1_backgroundBlur_2233_1722"/>
<feBlend mode="normal" in="SourceGraphic" in2="effect1_backgroundBlur_2233_1722" result="shape"/>
</filter>
</defs>
</svg>
